<?xml version="1.0" encoding="utf-8"?>
<!-- Generator: Adobe Illustrator 18.1.1, SVG Export Plug-In . SVG Version: 6.00 Build 0)  -->
<!DOCTYPE svg PUBLIC "-//W3C//DTD SVG 1.1//EN" "http://www.w3.org/Graphics/SVG/1.1/DTD/svg11.dtd">
<svg version="1.1" id="Layer_1" xmlns="http://www.w3.org/2000/svg" xmlns:xlink="http://www.w3.org/1999/xlink" x="0px" y="0px"
	 viewBox="0 0 124 84.1" enable-background="new 0 0 124 84.1" xml:space="preserve">
<g>
	<path fill="none" stroke="#1FC3F3" stroke-width="3.1721" stroke-linejoin="bevel" stroke-miterlimit="10" d="M33,33.8"/>
	<path fill="none" stroke="#1FC3F3" stroke-width="3.1721" stroke-miterlimit="10" d="M30.7,39.2"/>
	<path fill="none" stroke="#314772" stroke-width="4.2295" stroke-miterlimit="10" d="M45.7,49.6c0,0,3.7,7.3,6.1,11.5
		c-3-0.7-7.7-1.8-7.7-1.8l4.1,9.6l-9.2-12.3l9.2,1.6c0,0-3.1-5-4.5-7.6"/>
	<path fill="none" stroke="#314772" stroke-width="5.1109" stroke-miterlimit="10" d="M58.9,25.5c0-3.8-4.1-8.4-9.2-8.4
		s-9.2,4.6-9.2,8.4"/>
	<g>
		<polygon fill="#314772" points="57.3,22.1 57.3,25.5 89.5,25.5 57.3,22.1 		"/>
	</g>
	
		<path fill="none" stroke="#1FC3F3" stroke-width="3.1721" stroke-linecap="round" stroke-linejoin="round" stroke-miterlimit="10" d="
		M47.4,50.8"/>
	<path fill="none" stroke="#314772" stroke-width="5.1109" stroke-miterlimit="10" d="M57.6,34.5c0.9,3.1,0,7.3-2.7,11.1
		c-1.8,2.6-4.2,4.5-6.5,5.4"/>
	<g>
		<path fill="#314772" d="M6.2,0c1.5,11.3,0.1,15.5,10.6,27.9c6,7.1,20.2,18.7,25.5,8.7c0.2-0.4,0.3-0.8,0.5-1.2L6.2,0z"/>
		<path fill="#314772" d="M0,8.1C2.4,18,1.7,23,11.9,32.8c7.1,6.8,26.7,13.7,30.9,3.5c0.2-0.4,0.3-0.8,0.4-1.2L0,8.1z"/>
		<path fill="#314772" d="M-0.4,22.2c2.9,8.1,7.1,12.7,15.4,18c5.8,3.7,23.4,6.9,26.4-2.7c0.1-0.4,0.2-0.7,0.3-1.1L-0.4,22.2z"/>
	</g>
</g>
<g>
	<g>
		<path fill="#314772" d="M86,56.1l-2.7,15.6c-0.1,0.5-0.6,0.9-1.1,0.9h-6.8c-0.4,0-0.8-0.4-0.8-0.8c0-0.1,0-0.1,0-0.2l2.7-15.5
			c0.1-0.4,0.1-0.8,0.1-1.1c0-1.4-0.8-1.8-2.9-1.8c-1,0-2.1,0.1-3,0.3l-3.2,18.1c-0.1,0.5-0.6,1-1.1,1h-6.8c-0.5,0-0.8-0.4-0.8-0.9
			c0,0,0-0.1,0-0.1l6.7-36.5c0.1-0.5,0.5-0.9,1-0.9h6.9c0.4,0,0.8,0.3,0.8,0.8c0,0,0,0.1,0,0.1l-2.4,11.7c1.2-0.3,2.9-0.7,5-0.7
			c5.3,0,8.4,3,8.4,7.8C86.2,54.6,86.2,55.3,86,56.1z"/>
		<path fill="#314772" d="M109.7,48.2l-0.9,4.8c-0.1,0.5-0.4,0.9-0.9,0.9c0,0-0.1,0-0.1,0c-1.3-0.2-5.6-0.7-7.6-0.7
			c-0.7,0-1.8,0.1-1.8,1.1c0,0.3,0.3,0.6,0.8,0.9l4.7,2.8c2.7,1.6,3.6,3.7,3.6,5.8c0,7-5.5,9.3-11.7,9.3c-3.2,0-6.4-0.5-8.4-1.1
			c-0.5-0.1-0.7-0.4-0.7-0.8c0,0,0-0.1,0-0.2l0.8-4.6c0.1-0.6,0.5-0.9,1.1-0.9c0,0,0.1,0,0.2,0c2.6,0.4,6.2,0.7,7.6,0.7
			c1.1,0,2.3-0.2,2.3-1.5c0-0.4-0.2-0.8-1.1-1.3l-5-3c-2-1.2-3.1-3.6-3.1-5.9c0-6.7,5.4-8.4,11.2-8.4c3.5,0,6.2,0.5,8.2,1.1
			c0.5,0.1,0.7,0.4,0.7,0.8C109.7,48.1,109.7,48.1,109.7,48.2z"/>
		<path fill="#314772" d="M122.6,47.4l-4.3,24.2c-0.1,0.5-0.7,1-1.2,1h-6.7c-0.5,0-0.8-0.4-0.8-0.9c0,0,0-0.1,0-0.1l4.3-24.2
			c0.1-0.5,0.7-0.9,1.2-0.9h6.7c0.5,0,0.8,0.4,0.8,0.8C122.6,47.3,122.6,47.4,122.6,47.4z"/>
	</g>
	<circle fill="#314772" cx="119.6" cy="38.7" r="4.4"/>
</g>
</svg>
